<svg xmlns="http://www.w3.org/2000/svg" width="134" height="46" viewBox="0 0 134 46" fill="none">
  <g filter="url(#filter0_d)">
    <path fill="#fff" d="M4.44 11.23H7c.52 0 .95.44.95.97v18.2c0 1.44-.1 2.79-.25 3.98s-.36 2.26-.6 3.23a15.24 15.24 0 0 1-1.6 3.95.92.92 0 0 1-.8.44H2.94a.94.94 0 0 1-.89-1.25l.19-.66c.21-.76.43-1.63.6-2.6a40.73 40.73 0 0 0 .65-7.06V12.26c0-.6.43-1.03.95-1.03zM29.34 20.92c0 1.54-.24 2.95-.7 4.2a9.18 9.18 0 0 1-2.05 3.24 8.68 8.68 0 0 1-3.22 2.07c-1.25.5-2.66.72-4.25.72-1.5 0-2.87-.25-4.1-.72a8.96 8.96 0 0 1-3.15-2.01 9.45 9.45 0 0 1-2.02-3.14c-.45-1.22-.7-2.6-.7-4.14 0-1.63.25-3.07.7-4.36a8.7 8.7 0 0 1 5.39-5.3c1.28-.47 2.75-.69 4.37-.69 1.56 0 2.94.22 4.16.69a8.33 8.33 0 0 1 3.06 2 8.73 8.73 0 0 1 1.9 3.2c.4 1.23.61 2.64.61 4.24zm-4.47 0c0-2.16-.46-3.76-1.37-4.86-.92-1.1-2.27-1.63-4.07-1.63a5.3 5.3 0 0 0-4.2 1.7c-1 1.12-1.5 2.75-1.5 4.92 0 1.03.13 1.94.4 2.76.28.81.65 1.5 1.14 2.07.49.56 1.1 1 1.8 1.28.7.32 1.5.44 2.39.44 1.77 0 3.12-.56 4.07-1.72.88-1.13 1.34-2.8 1.34-4.96zM31.82 0h2.57c.52 0 .94.44.94.97v8.4c0 .35-.03.7-.03 1.04 0 .35-.03.7-.03 1.04v.31c0 .22.22.35.4.25a8.93 8.93 0 0 1 2.05-.78c.49-.13.98-.22 1.5-.31a9.96 9.96 0 0 1 5.35.56 8.05 8.05 0 0 1 2.88 1.91 8.1 8.1 0 0 1 1.77 2.95 12.76 12.76 0 0 1-.18 8.31 9.52 9.52 0 0 1-5.72 5.71c-1.38.5-2.9.79-4.59.79a27.32 27.32 0 0 1-4.4-.38c-.68-.12-1.32-.25-1.9-.38-.3-.06-.55-.15-.83-.22a1 1 0 0 1-.7-.94V1c-.03-.56.4-1 .92-1zm3.48 27c0 .23.16.41.37.48.3.06.64.1.98.15.49.07 1.01.1 1.6.1 1.28 0 2.38-.22 3.26-.63a5.9 5.9 0 0 0 3.37-4.05c.24-.9.37-1.81.37-2.76 0-1-.13-1.88-.4-2.63a5.6 5.6 0 0 0-1.1-1.88 4.46 4.46 0 0 0-1.69-1.13 5.92 5.92 0 0 0-2.14-.38 8.12 8.12 0 0 0-2.39.38c-.42.12-.82.25-1.19.44-.3.12-.55.28-.8.44-.11.1-.2.22-.2.37V27h-.04zM61.7 29.7c0 .41-.24.76-.6.91a11.26 11.26 0 0 1-3.61.56c-1.87 0-3.22-.52-4.01-1.56-.8-1.03-1.2-2.63-1.2-4.8V14.65a.28.28 0 0 0-.27-.28h-2.36a.97.97 0 0 1-.95-.98V12.2c0-.53.43-.97.95-.97h2.57c.12 0 .22-.06.25-.19.24-.78.49-1.6.73-2.45l.58-1.97c.1-.35.43-.6.77-.6h1.34c.46 0 .8.38.8.82v4.1c0 .16.12.29.27.29h4.1c.52 0 .95.44.95.97v1.2c0 .53-.43.97-.95.97h-4.1a.28.28 0 0 0-.27.28V25.5c0 .7.18 1.22.52 1.66.33.41.82.63 1.47.63.58 0 1.1-.03 1.59-.1l.33-.02a.97.97 0 0 1 1.07.97v1.06h.03z"></path>
    <path fill="#fff" d="M81.31 20.92c0 1.54-.24 2.95-.7 4.2a9.18 9.18 0 0 1-2.05 3.24 8.68 8.68 0 0 1-3.21 2.07c-1.26.5-2.66.72-4.25.72-1.53 0-2.88-.25-4.1-.72a8.96 8.96 0 0 1-3.15-2.01 9.45 9.45 0 0 1-2.02-3.14c-.46-1.22-.7-2.6-.7-4.14 0-1.63.24-3.07.7-4.36a8.7 8.7 0 0 1 5.38-5.3c1.28-.47 2.75-.69 4.37-.69 1.56 0 2.94.22 4.16.69a8.33 8.33 0 0 1 3.06 2 8.73 8.73 0 0 1 1.9 3.2c.4 1.23.61 2.64.61 4.24zm-4.46 0c0-2.16-.46-3.76-1.38-4.86-.92-1.1-2.26-1.63-4.07-1.63a5.3 5.3 0 0 0-4.19 1.7c-1 1.12-1.5 2.75-1.5 4.92 0 1.03.12 1.94.4 2.76.27.81.64 1.5 1.13 2.07.49.56 1.1 1 1.8 1.28.7.32 1.5.44 2.4.44 1.77 0 3.11-.56 4.06-1.72.89-1.13 1.35-2.8 1.35-4.96zM98.66 30.74h-2.6a.97.97 0 0 1-.95-.97v-11.1c0-1.39-.25-2.45-.77-3.17-.52-.73-1.31-1.1-2.35-1.1-.5 0-.95.06-1.4.22-.47.15-.9.34-1.32.56-.4.22-.8.47-1.14.72-.3.22-.55.44-.76.63-.06.06-.1.13-.1.19v13.02c0 .53-.42.97-.94.97h-2.57a.97.97 0 0 1-.95-.97V12.17c0-.53.43-.97.95-.97h2.48c.49 0 .91.4.95.9l.03.76c0 .13.12.16.21.1.28-.23.55-.48.89-.7a8.04 8.04 0 0 1 4.53-1.54 7.1 7.1 0 0 1 3.6.85 5.34 5.34 0 0 1 2.11 2.2c.04.1.16.1.22.03.37-.34.73-.69 1.2-1.03.48-.38 1-.73 1.55-1.04a8.54 8.54 0 0 1 1.75-.72 6.26 6.26 0 0 1 1.86-.28c2.3 0 3.98.69 5.08 2.04s1.62 3.26 1.62 5.7v11.27c0 .53-.43.97-.95.97h-2.6a.97.97 0 0 1-.95-.97v-11.1c0-1.39-.24-2.45-.76-3.18a2.66 2.66 0 0 0-2.3-1.1c-.51 0-1.04.1-1.52.26a7.7 7.7 0 0 0-2.48 1.47c-.28.25-.52.5-.7.72-.07.07-.07.16-.07.22.03.16.03.38.06.63.03.31.03.6.03.81v11.27c0 .6-.42 1-.94 1zM113.13 20.86c0-1.5.24-2.89.7-4.11a9.74 9.74 0 0 1 2.02-3.2 9.04 9.04 0 0 1 3.15-2.04c1.22-.47 2.57-.72 4.07-.72 1.47 0 2.75.22 3.85.66a7.68 7.68 0 0 1 2.79 1.85 7.87 7.87 0 0 1 1.7 2.98c.38 1.16.59 2.5.59 3.98v.98c0 .53-.43.97-.95.97h-13.3c-.16 0-.31.15-.28.31.1.7.28 1.32.58 1.95a5.99 5.99 0 0 0 3.33 2.92c.77.28 1.63.4 2.54.4a14.5 14.5 0 0 0 5.5-1.32l.5-.22c.61-.31 1.35.16 1.35.88v1.38c0 .35-.19.7-.5.85-1 .53-2.07.97-3.2 1.29-1.32.37-2.79.56-4.47.56a11.5 11.5 0 0 1-4.16-.69 8.37 8.37 0 0 1-3.15-2.04 9.05 9.05 0 0 1-2-3.23 14.04 14.04 0 0 1-.66-4.4zm9.94-6.5c-1.47 0-2.7.38-3.64 1.17a5.48 5.48 0 0 0-1.78 3c-.03.2.1.35.28.35h9.42c.15 0 .28-.12.28-.31a4.79 4.79 0 0 0-1.29-3.07 4.59 4.59 0 0 0-3.27-1.13z"></path>
    <path fill="#D05" d="M8.2 8.78H3.2a.97.97 0 0 1-.95-.97V3.76c0-.53.43-.97.95-.97H8.2c.52 0 .95.44.95.97v4.05c0 .53-.43.97-.95.97z"></path>
  </g>
  <defs>
    <filter id="filter0_d" width="134" height="46" x="0" y="0" color-interpolation-filters="sRGB" filterUnits="userSpaceOnUse">
      <feFlood flood-opacity="0" result="BackgroundImageFix"></feFlood>
      <feColorMatrix in="SourceAlpha" values="0 0 0 0 0 0 0 0 0 0 0 0 0 0 0 0 0 0 255 0"></feColorMatrix>
      <feOffset dy="2"></feOffset>
      <feGaussianBlur stdDeviation="1"></feGaussianBlur>
      <feColorMatrix values="0 0 0 0 0 0 0 0 0 0 0 0 0 0 0 0 0 0 0.1 0"></feColorMatrix>
      <feBlend in2="BackgroundImageFix" result="effect1_dropShadow"></feBlend>
      <feBlend in="SourceGraphic" in2="effect1_dropShadow" result="shape"></feBlend>
    </filter>
  </defs>
</svg>